<?xml version="1.0" standalone="no"?>
<!DOCTYPE svg PUBLIC "-//W3C//DTD SVG 20010904//EN"
 "http://www.w3.org/TR/2001/REC-SVG-20010904/DTD/svg10.dtd">
<svg version="1.0" xmlns="http://www.w3.org/2000/svg"
 width="500.000000pt" height="500.000000pt" viewBox="0 0 500.000000 500.000000"
 preserveAspectRatio="xMidYMid meet">
<metadata>
Created by potrace 1.14, written by Peter Selinger 2001-2017
</metadata>
<g transform="translate(0.000000,500.000000) scale(0.100000,-0.100000)"
fill="#000000" stroke="none">
<path d="M0 2500 l0 -2500 2500 0 2500 0 0 2500 0 2500 -2500 0 -2500 0 0
-2500z m4375 1973 c46 -24 75 -54 101 -103 18 -34 19 -98 19 -1871 l0 -1836
-30 -49 c-19 -30 -49 -60 -79 -79 l-49 -30 -1821 -3 c-1660 -2 -1825 -1 -1864
14 -61 23 -101 60 -128 119 l-24 50 0 1815 c0 1805 1 1815 21 1860 27 60 54
88 114 116 l50 24 1825 -3 1825 -2 40 -22z"/>
<path d="M697 4302 c-16 -17 -17 -157 -17 -1804 0 -1716 1 -1786 18 -1801 17
-16 157 -17 1804 -17 1716 0 1786 1 1801 18 16 17 17 157 17 1804 0 1716 -1
1786 -18 1801 -17 16 -157 17 -1804 17 -1716 0 -1786 -1 -1801 -18z m2095
-613 l285 -611 612 -286 c336 -157 611 -288 611 -292 0 -4 -275 -135 -611
-292 l-612 -286 -285 -611 c-157 -336 -288 -611 -292 -611 -4 0 -135 275 -292
611 l-285 611 -612 286 c-336 157 -611 288 -611 292 0 4 275 135 611 292 l612
286 285 611 c157 336 288 611 292 611 4 0 135 -275 292 -611z"/>
</g>
</svg>
